<?xml version="1.0" encoding="UTF-8" standalone="no"?>
<svg
   xmlns:dc="http://purl.org/dc/elements/1.1/"
   xmlns:cc="http://creativecommons.org/ns#"
   xmlns:rdf="http://www.w3.org/1999/02/22-rdf-syntax-ns#"
   xmlns:svg="http://www.w3.org/2000/svg"
   xmlns="http://www.w3.org/2000/svg"
   xmlns:sodipodi="http://sodipodi.sourceforge.net/DTD/sodipodi-0.dtd"
   xmlns:inkscape="http://www.inkscape.org/namespaces/inkscape"
   viewBox="0 0 50 50"
   width="500"
   height="500"
   version="1.1"
   id="svg4"
   sodipodi:docname="logo.svg"
   inkscape:version="0.92.1 r15371">
  <metadata
     id="metadata10">
    <rdf:RDF>
      <cc:Work
         rdf:about="">
        <dc:format>image/svg+xml</dc:format>
        <dc:type
           rdf:resource="http://purl.org/dc/dcmitype/StillImage" />
      </cc:Work>
    </rdf:RDF>
  </metadata>
  <defs
     id="defs8" />
  <sodipodi:namedview
     pagecolor="#ffffff"
     bordercolor="#666666"
     borderopacity="1"
     objecttolerance="10"
     gridtolerance="10"
     guidetolerance="10"
     inkscape:pageopacity="0"
     inkscape:pageshadow="2"
     inkscape:window-width="1366"
     inkscape:window-height="745"
     id="namedview6"
     showgrid="false"
     inkscape:zoom="0.6675088"
     inkscape:cx="-4.7794764"
     inkscape:cy="287.01396"
     inkscape:window-x="-8"
     inkscape:window-y="-8"
     inkscape:window-maximized="1"
     inkscape:current-layer="svg4" />
  <path
     style="line-height:normal;font-family:Sans;-inkscape-font-specification:Sans;text-indent:0;text-align:start;text-transform:none;overflow:visible"
     d="m 25.109314,9.95391 c -0.03175,0.0089 -0.06303,0.01929 -0.09375,0.03125 h -0.03125 -7.96875 c -0.03123,-0.0015 -0.06252,-0.0015 -0.09375,0 -0.326633,0.02853 -0.618539,0.215346 -0.78125,0.5 -5.98656,10.813206 -0.597146,1.113148 -8.1562501,14.71875 0.026905,0.09964 0.069071,0.194511 0.125,0.28125 l 6.5937501,11.5 c 1.062257,1.853248 3.050571,3 5.1875,3 h 4.625 c 0.221966,0.08124 0.465534,0.08124 0.6875,0 h 7.84375 c 0.360462,0.0032 0.694758,-0.18782 0.875,-0.5 4.439964,-7.967888 7.365512,-13.467996 8.09375,-14.875 1.63e-4,-0.01042 1.63e-4,-0.02083 0,-0.03125 l -0.03125,-0.0625 c -0.01018,-0.01065 -0.0206,-0.02107 -0.03125,-0.03125 -0.01906,-0.0324 -0.03992,-0.0637 -0.0625,-0.09375 l -6.53125,-11.40625 c -1.061466,-1.853964 -3.050571,-3 -5.1875,-3 h -4.75 -0.09375 C 25.256524,9.96669 25.183161,9.95621 25.109314,9.95391 Z m -7.5,2.03125 h 5.84375 l -3.09375,5.40625 v 0.03125 l -0.03125,0.03125 c -0.03594,0.04912 -0.06732,0.101422 -0.09375,0.15625 l -3.9375,6.875 c -0.03594,0.04912 -0.06732,0.101422 -0.09375,0.15625 -1.63e-4,0.01042 -1.63e-4,0.02083 0,0.03125 -0.179701,0.420717 -0.05101,0.909734 0.3125,1.1875 0.01018,0.01065 0.0206,0.02107 0.03125,0.03125 l 3.6875,6.46875 c 0.180242,0.31218 0.514538,0.503206 0.875,0.5 h 6.125 l -2.90625,5.125 h -4.4375 c -1.423071,0 -2.729757,-0.765248 -3.4375,-2 l -6.3125,-11 3.75,-6.5625 c 0.135043,-0.127437 0.232355,-0.289624 0.28125,-0.46875 z m 8.15625,0 h 4.40625 c 1.423071,0 2.730966,0.765964 3.4375,2 l 6.3125,11 -3.84375,6.6875 c -0.03772,0.05905 -0.06914,0.121895 -0.09375,0.1875 l -3.53125,6.125 h -5.84375 l 3.125,-5.4375 0.03125,-0.09375 c 0.02258,-0.03005 0.04344,-0.06135 0.0625,-0.09375 l 3.9375,-6.875 c 0.176654,-0.295958 0.188462,-0.662023 0.03125,-0.96875 -0.01018,-0.01065 -0.0206,-0.02107 -0.03125,-0.03125 v -0.03125 c -0.03447,-0.06701 -0.0764,-0.129909 -0.125,-0.1875 l -3.8125,-6.65625 c -0.174612,-0.3026 -0.494473,-0.492147 -0.84375,-0.5 h -6.15625 z m -4.09375,7.125 h 6.71875 l 3.375,5.875 -3.375,5.875 h -6.71875 l -3.375,-5.875 1.65625,-2.875 z"
     overflow="visible"
     id="path2"
     inkscape:connector-curvature="0"
     sodipodi:nodetypes="cccccccccsccccccccccsccccccccccccccccccsccccccscccccccccccccccccccccccccc" />
</svg>
